<?xml version="1.0" encoding="UTF-8"?>
<svg version="1.1" xmlns="http://www.w3.org/2000/svg" width="3201" height="3192">
<path d="M0 0 C1056.33 0 2112.66 0 3201 0 C3201 1053.36 3201 2106.72 3201 3192 C2144.67 3192 1088.34 3192 0 3192 C0 2138.64 0 1085.28 0 0 Z " fill="#5D71E0" transform="translate(0,0)"/>
<path d="M0 0 C0.82993469 -0.00100708 1.65986938 -0.00201416 2.51495361 -0.00305176 C16.74966104 0.00855031 30.55563546 1.01062614 44.625 3.25 C46.78112018 3.56728969 48.93737361 3.88367501 51.09375 4.19921875 C53.22962749 4.5256447 55.36506277 4.85497997 57.5 5.1875 C58.45696777 5.3328418 59.41393555 5.47818359 60.39990234 5.62792969 C66.2013624 6.59195238 71.45404566 8.14388438 76.94189453 10.2487793 C81.10110774 11.80082055 85.3580919 12.97186385 89.625 14.1875 C95.96321339 16.03923179 102.02423643 18.00548874 107.9453125 20.9765625 C110.34171242 22.11537646 112.72378779 23.0502268 115.203125 23.98828125 C121.22004503 26.37370715 126.69033877 29.51891717 132.25 32.8125 C133.29381836 33.42657715 134.33763672 34.0406543 135.41308594 34.67333984 C158.99347868 48.68440423 158.99347868 48.68440423 164.625 55.25 C164.99625 56.8278125 164.99625 56.8278125 165.375 58.4375 C166.82329613 64.54667639 172.25069878 69.08558176 176.74609375 73.18359375 C181.17389058 78.05324972 182.93070028 85.82772761 183.625 92.25 C184.285 92.25 184.945 92.25 185.625 92.25 C185.96320166 93.8323006 186.29535939 95.41589375 186.625 97 C186.810625 97.88171875 186.99625 98.7634375 187.1875 99.671875 C187.625 102.25 187.625 102.25 187.625 106.25 C188.285 106.25 188.945 106.25 189.625 106.25 C191.95404937 118.52525422 191.90203145 130.60675593 191.86791992 143.05297852 C191.86897174 145.34957526 191.870889 147.64617175 191.87359524 149.94276714 C191.8783805 156.19279366 191.87066874 162.4427492 191.86060572 168.69276714 C191.85279394 174.67844855 191.85413456 180.66412618 191.85506731 186.64981107 C191.85671813 200.22853552 191.8444988 213.80722539 191.82783461 227.38593805 C191.81509108 237.85904709 191.80682802 248.33215215 191.80123901 258.80526733 C191.75586034 341.4298786 191.51388643 424.05135139 190.86991501 517.048069 C190.67360539 545.05533501 190.52661924 573.06262133 190.40625 601.0703125 C190.40186944 602.08583608 190.39748888 603.10135966 190.39297557 604.14765668 C190.35206273 613.63248923 190.31149553 623.11732325 190.27122402 632.60215855 C189.86986745 727.07375914 189.3512372 821.54456353 188.72377151 927.22188932 C188.65315797 939.1027056 188.58324487 950.98352582 188.51377388 962.86434884 C188.46712146 970.83787096 188.420242 978.81139174 188.37329102 986.78491211 C188.36818761 987.6521834 188.36308421 988.51945468 188.35782616 989.41300692 C188.24284538 1008.93946985 188.12421554 1028.46589917 187.99351501 1047.99226379 C187.98809535 1048.80319086 187.98267569 1049.61411793 187.9770918 1050.44961854 C187.92872997 1057.68239387 187.88021856 1064.91516817 187.83091938 1072.14793718 C187.70898692 1090.05838626 187.60241171 1107.96872516 187.53159523 1125.87945378 C187.48969768 1136.43408387 187.43574811 1146.98860667 187.37192345 1157.54313076 C187.32993922 1164.61688514 187.30370291 1171.69043667 187.29059887 1178.76430035 C187.27860936 1183.01338945 187.2503549 1187.26225114 187.21724892 1191.51122332 C187.20549154 1193.43312411 187.2003224 1195.35507991 187.20268822 1197.27701521 C187.21920305 1215.64278331 184.3700584 1230.01732144 171.21484375 1243.76953125 C167.51946024 1247.19346756 164.40628336 1249.55314594 159.625 1251.25 C159.625 1251.91 159.625 1252.57 159.625 1253.25 C157.54280951 1254.06542431 155.45920239 1254.87723189 153.375 1255.6875 C152.21484375 1256.13996094 151.0546875 1256.59242187 149.859375 1257.05859375 C145.67938492 1258.5983244 142.31777893 1259.37623576 137.859375 1259.34765625 C136.52519531 1259.34282227 136.52519531 1259.34282227 135.1640625 1259.33789062 C134.24367188 1259.32951172 133.32328125 1259.32113281 132.375 1259.3125 C131.43914062 1259.30798828 130.50328125 1259.30347656 129.5390625 1259.29882812 C127.23430959 1259.28706918 124.92968773 1259.27063426 122.625 1259.25 C122.625 1258.59 122.625 1257.93 122.625 1257.25 C121.66400391 1257.08564453 121.66400391 1257.08564453 120.68359375 1256.91796875 C106.51714198 1254.3211378 97.97322824 1247.94096311 89.63671875 1236.31640625 C84.08521196 1227.85440075 80.30340997 1219.69793289 80.37776184 1209.45344543 C80.37534583 1208.68496834 80.37292982 1207.91649124 80.3704406 1207.12472695 C80.36480906 1204.55157012 80.3734622 1201.97866322 80.38208008 1199.40551758 C80.38102956 1197.5480518 80.37911424 1195.69058635 80.37640476 1193.83312225 C80.37159749 1188.75452501 80.37935862 1183.67601438 80.38939428 1178.59742761 C80.39806091 1173.19379244 80.39560994 1167.79016084 80.39468384 1162.38652039 C80.39485845 1151.92168802 80.40637491 1141.45689732 80.42216539 1130.99207801 C80.43485918 1122.45712172 80.44315546 1113.92217079 80.44876099 1105.38720703 C80.48841574 1046.84439696 80.64648727 988.3053993 81.14793479 929.76466018 C81.214681 921.96291053 81.280041 914.16115005 81.34375 906.359375 C81.34973977 905.62691708 81.35572953 904.89445917 81.36190081 904.13980556 C81.60147149 874.68205611 81.73379734 845.22411436 81.84375 815.765625 C81.84813977 814.59053265 81.85252954 813.4154403 81.85705233 812.20473909 C81.91818375 795.78118616 81.97657197 779.35762366 82.03449249 762.93405914 C82.12207534 738.10446768 82.21177295 713.27488458 82.3046875 688.4453125 C82.30744861 687.70635079 82.31020972 686.96738909 82.3130545 686.2060346 C82.5444797 624.30122059 82.83336583 562.39670581 83.1328125 500.4921875 C83.13846136 499.32370844 83.14411023 498.15522938 83.14993027 496.95134187 C83.3841029 448.5134336 83.62177931 400.07554267 83.8620317 351.6376642 C83.91857636 340.23619447 83.97501713 328.83472425 84.0311203 317.43325233 C84.03653878 316.33212022 84.04195726 315.23098811 84.04753993 314.09648836 C84.07448383 308.61971529 84.10140451 303.14294209 84.12830663 297.66616881 C84.18496372 286.14005614 84.24225313 274.61394696 84.30041928 263.08784181 C84.33981237 255.27404072 84.37855309 247.46023657 84.41680889 239.64642984 C84.43864065 235.19221215 84.46074988 230.73799639 84.48371494 226.28378439 C84.49221372 224.62625602 84.50070633 222.96872762 84.50919247 221.31119919 C84.51335555 220.50504111 84.51751864 219.69888302 84.52180788 218.86829591 C84.54159103 214.94067716 84.5587984 211.01307702 84.57035512 207.0854249 C84.5749412 205.55783106 84.57955097 204.03023728 84.58418465 202.50264359 C84.58751269 201.37505766 84.58751269 201.37505766 84.59090796 200.22469223 C84.60833189 195.3738102 84.652323 190.52376527 84.71129533 185.67321695 C84.74993236 182.31323338 84.77630517 178.9532107 84.8008604 175.59309797 C84.81531675 174.01351009 84.83512194 172.43395968 84.86096472 170.85451706 C85.10325199 155.8211464 83.764188 138.18885666 72.75 126.8125 C71.39808095 125.59878829 70.02424458 124.40883383 68.625 123.25 C68.08101562 122.76917969 67.53703125 122.28835938 66.9765625 121.79296875 C61.88983706 117.68636845 55.81770345 116.07018706 49.625 114.25 C49.625 113.59 49.625 112.93 49.625 112.25 C48.490625 112.146875 47.35625 112.04375 46.1875 111.9375 C42.45853453 111.5417142 38.8384818 110.89451265 35.1668396 110.13822937 C25.15878709 108.14711357 15.40400486 107.81938929 5.22216797 107.91381836 C2.49546858 107.93753942 -0.23025356 107.9343326 -2.95703125 107.92773438 C-12.16937909 107.94335859 -21.10042213 108.34884377 -30.20507812 109.78686523 C-33.3953339 110.25297084 -36.53081082 110.47510427 -39.75 110.625 C-45.03798743 110.99104116 -50.03954127 111.91958601 -55.1875 113.125 C-55.88085449 113.28661621 -56.57420898 113.44823242 -57.28857422 113.61474609 C-61.49455924 114.64890585 -65.47081706 115.99727956 -69.5065918 117.56298828 C-73.00134657 118.84800591 -76.62660729 119.57917123 -80.25 120.40625 C-83.34630887 121.2422534 -86.2447812 122.30931385 -89.23291016 123.46044922 C-92.17805359 124.54599673 -95.17039167 125.43823659 -98.17504883 126.34301758 C-106.00708865 128.70328155 -113.30932036 131.3354153 -120.61328125 135.05078125 C-123.54964797 136.32583724 -126.20888692 136.85248211 -129.375 137.25 C-129.375 137.91 -129.375 138.57 -129.375 139.25 C-134.26108643 141.48060467 -139.01579365 143.03696201 -144.23828125 144.30859375 C-146.96420926 145.50959677 -147.18980028 146.58208128 -148.375 149.25 C-149.62689444 150.53983064 -150.92270202 151.78790147 -152.25 153 C-159.33825351 159.93416104 -162.37723958 168.33888822 -162.62388897 178.22839165 C-162.63353414 180.13912445 -162.63225968 182.04993198 -162.62223816 183.96066284 C-162.62465417 185.02705876 -162.62707018 186.09345467 -162.6295594 187.19216561 C-162.63521567 190.79207178 -162.62650254 194.39180082 -162.61791992 197.99169922 C-162.61897299 200.617822 -162.62081703 203.24393378 -162.62359524 205.87005424 C-162.6280575 211.64967992 -162.62488311 217.42926393 -162.61687088 223.20888519 C-162.60466456 232.01966079 -162.60395212 240.83041354 -162.60506731 249.64119619 C-162.60667284 265.95174329 -162.59591112 282.26226714 -162.58056229 298.57280606 C-162.5667036 313.33399841 -162.55715285 328.09518663 -162.55123901 342.85638428 C-162.52445374 408.11117306 -162.45907148 473.36590542 -162.38274357 538.62065263 C-162.37661813 543.85897534 -162.37053147 549.0972981 -162.3644619 554.33562088 C-162.26591642 639.34734031 -162.15703361 724.35904405 -161.98400801 844.37582481 C-161.98271765 845.26141959 -161.98142728 846.14701437 -161.98009781 847.05944535 C-161.97816385 848.38666802 -161.97816385 848.38666802 -161.97619082 849.74070328 C-161.97490272 850.62469482 -161.97361462 851.50868637 -161.97228748 852.41946554 C-161.96968865 854.20290028 -161.96708943 855.98633503 -161.96448982 857.76976977 C-161.94530224 870.93845968 -161.92645589 884.10715004 -161.9078331 897.27584076 C-161.79587694 976.39571677 -161.66994569 1055.51553381 -161.49936265 1134.63530763 C-161.48377173 1141.8740997 -161.46833188 1149.11289208 -161.45294189 1156.35168457 C-161.45124548 1157.14771652 -161.44954906 1157.94374848 -161.44780124 1158.76390261 C-161.39147244 1185.23478754 -161.34918404 1211.70567518 -161.31314156 1238.17659484 C-161.27522139 1265.97778697 -161.22450737 1293.77892576 -161.15697901 1321.58006254 C-161.14753364 1325.47011134 -161.13823018 1329.36016047 -161.12901115 1333.25020981 C-161.12719595 1334.01394275 -161.12538074 1334.77767569 -161.12351053 1335.56455205 C-161.09503542 1347.69908996 -161.0799257 1359.83360688 -161.07024431 1371.96817277 C-161.06039796 1383.95168774 -161.03627476 1395.9351043 -160.99711488 1407.91856006 C-160.97664795 1414.36457131 -160.96264762 1420.81042644 -160.96599078 1427.25647306 C-160.96890716 1433.13814849 -160.95358045 1439.01948009 -160.92355763 1444.90107702 C-160.91595421 1447.02423321 -160.91508561 1449.1474264 -160.92162282 1451.27058615 C-160.92951902 1454.15125498 -160.91290442 1457.03079287 -160.8901968 1459.91135979 C-160.89834099 1460.73370182 -160.90648517 1461.55604385 -160.91487616 1462.40330534 C-160.78919663 1471.18634734 -156.80314438 1478.05854607 -152 1485.1875 C-149.3331045 1489.19592802 -146.8670241 1493.1708602 -144.625 1497.4375 C-140.61843128 1504.12237281 -134.48585269 1508.60000631 -128.375 1513.25 C-127.69324707 1513.76997559 -127.01149414 1514.28995117 -126.30908203 1514.82568359 C-111.79666519 1525.78996126 -96.58993222 1535.16286816 -80.5 1543.625 C-79.57356689 1544.11299072 -78.64713379 1544.60098145 -77.69262695 1545.10375977 C-55.1007106 1556.77815714 -30.46411723 1564.35834022 -5.375 1568.25 C-4.21709961 1568.43401367 -3.05919922 1568.61802734 -1.86621094 1568.80761719 C9.74731049 1570.46838332 21.28164046 1570.6475732 33 1570.625 C34.01556976 1570.62478851 35.03113953 1570.62457703 36.07748413 1570.62435913 C50.91258822 1570.59357334 65.13735644 1569.90654821 79.70068359 1566.85742188 C82.85101283 1566.20305394 86.00995825 1565.62138054 89.17578125 1565.046875 C100.96942351 1562.86199705 112.27038374 1560.10705081 123.625 1556.25 C125.24738317 1555.76204659 126.87215544 1555.28191217 128.5 1554.8125 C133.2731517 1553.38380153 138.01395696 1551.85903158 142.75 1550.3125 C143.50265137 1550.07152588 144.25530273 1549.83055176 145.03076172 1549.58227539 C149.49192095 1548.11070905 153.61643884 1546.35234904 157.78515625 1544.18920898 C160.3200502 1542.89518868 162.92649551 1541.82031184 165.5625 1540.75 C174.53917259 1537.2129934 174.53917259 1537.2129934 183.0625 1532.75 C185.38007585 1531.39337023 187.49671407 1530.50380128 190 1529.5625 C210.57632665 1521.47034814 229.96252406 1508.48126956 248.52490234 1496.58642578 C250.93975279 1495.04970277 253.37055834 1493.53963041 255.80078125 1492.02734375 C257.59685822 1490.8940276 259.39243673 1489.75992107 261.1875 1488.625 C262.43805176 1487.85337524 262.43805176 1487.85337524 263.71386719 1487.06616211 C269.36873481 1483.45383816 273.38415486 1479.41143078 277.625 1474.25 C278.96084172 1472.91885368 280.31088351 1471.60143392 281.6875 1470.3125 C291.9485972 1460.09079281 302.88406004 1441.59547002 303.01723273 1426.81163075 C303.00923356 1426.02763001 303.00123439 1425.24362928 302.99299282 1424.43587095 C302.99633015 1423.57867107 302.99966749 1422.72147119 303.00310596 1421.83829556 C303.01062844 1418.96451916 302.99673959 1416.091251 302.98297024 1413.21750355 C302.98397564 1411.12807967 302.98630132 1409.03865608 302.98982826 1406.94923493 C302.99572085 1401.18501775 302.9828264 1395.42096988 302.96699313 1389.65677703 C302.95310458 1383.39423989 302.9566613 1377.13170936 302.95806223 1370.86916035 C302.95812117 1359.88560045 302.94714794 1348.90210284 302.92878342 1337.91856003 C302.90914527 1326.13250145 302.89610272 1314.34646277 302.89114952 1302.56038857 C302.89067575 1301.44398207 302.89067575 1301.44398207 302.89019241 1300.3050219 C302.88861652 1296.50997643 302.88715648 1292.71493092 302.88574411 1288.91988539 C302.87565877 1262.28780229 302.85292579 1235.65574382 302.82279197 1209.02367651 C302.79105538 1180.95937619 302.76692231 1152.89508601 302.75387764 1124.83077049 C302.75348343 1123.98538144 302.75308922 1123.13999238 302.75268306 1122.26898547 C302.748302 1112.82292393 302.74418511 1103.37686229 302.74018366 1093.93080058 C302.73277941 1076.458987 302.72438786 1058.98717387 302.71580601 1041.51536083 C302.7153782 1040.64115001 302.7149504 1039.76693919 302.71450963 1038.86623714 C302.69410704 997.25300511 302.66509578 955.63978026 302.63367556 914.02655525 C302.63159128 911.26518027 302.62951268 908.50380529 302.62743514 905.74243031 C302.59680362 865.06006651 302.56433592 824.37770438 302.52989989 783.69534363 C302.51662604 768.01228083 302.50345917 752.32921794 302.49034626 736.64615501 C302.48803771 733.8867005 302.48572423 731.127246 302.48341035 728.3677915 C302.44859378 686.80139876 302.41709151 645.2350078 302.39740086 603.66860485 C302.39698536 602.79496684 302.39656986 601.92132883 302.39614177 601.02121694 C302.38786159 583.56638331 302.38015793 566.11154949 302.37358947 548.65671513 C302.37003644 539.21724611 302.36627937 529.77777719 302.36230659 520.33830833 C302.36195377 519.49381083 302.36160094 518.64931333 302.36123742 517.77922499 C302.34974526 490.57248296 302.32413819 463.36577608 302.29066215 436.15905284 C302.25695956 408.75804884 302.23501976 381.35706543 302.22996039 353.95604024 C302.2292543 350.16956571 302.22839829 346.38309122 302.22744942 342.59661674 C302.22726796 341.85436624 302.2270865 341.11211574 302.22689955 340.34737279 C302.22364714 328.5952167 302.20687675 316.84312012 302.18444117 305.09098662 C302.16264957 293.53454619 302.15541925 281.9781934 302.16264525 270.42172964 C302.16608523 264.24003126 302.16312058 258.05851613 302.14250361 251.87684719 C302.12386224 246.25254236 302.1236751 240.62854967 302.13816408 235.00423537 C302.14014099 232.9828824 302.13540926 230.96150878 302.12311501 228.94019223 C302.01914366 210.77897527 304.89702756 195.97732348 317.66015625 182.125 C324.96449988 175.15465221 335.2643213 168.25 345.625 168.25 C345.625 167.59 345.625 166.93 345.625 166.25 C682.885 166.25 1020.145 166.25 1367.625 166.25 C1367.625 166.91 1367.625 167.57 1367.625 168.25 C1368.429375 168.353125 1369.23375 168.45625 1370.0625 168.5625 C1385.51781975 171.54510556 1398.91545928 179.29571348 1408.5703125 191.76171875 C1416.51904425 204.16413688 1417.20491176 216.36380098 1417.12836456 230.60617828 C1417.13254137 232.57266301 1417.13846954 234.53914465 1417.14598203 236.50561947 C1417.16154851 241.90985943 1417.15224369 247.31381329 1417.13887022 252.71804857 C1417.12872221 258.5972862 1417.14176355 264.47648003 1417.15184355 270.35571146 C1417.16629469 280.66002023 1417.16598449 290.96425225 1417.15565491 301.26856422 C1417.14464146 312.3224673 1417.14233528 323.37632125 1417.15060425 334.43022728 C1417.15112094 335.12896796 1417.15163763 335.82770865 1417.15216998 336.54762329 C1417.15430311 339.39358677 1417.15649795 342.23955018 1417.15877108 345.08551355 C1417.17991857 371.58091876 1417.18136758 398.07629106 1417.17018127 424.57170105 C1417.16985009 425.35650007 1417.16951891 426.14129909 1417.16917769 426.9498799 C1417.16884597 427.7359364 1417.16851426 428.5219929 1417.16817249 429.33186929 C1417.15807991 453.279259 1417.15547412 477.2266351 1417.16026306 501.17402649 C1417.16057298 502.77763597 1417.1608816 504.38124545 1417.16118894 505.98485493 C1417.16243081 512.42909283 1417.16370548 518.87333073 1417.165028 525.31756862 C1417.16869603 543.33189306 1417.17097843 561.34621753 1417.17217255 579.3605423 C1417.17222713 580.18087269 1417.17228171 581.00120309 1417.17233795 581.84639198 C1417.17397506 607.98576964 1417.16946748 634.12514256 1417.16077423 660.26451874 C1417.16035274 661.53623372 1417.16035274 661.53623372 1417.15992273 662.83363992 C1417.15534293 676.60153472 1417.15046508 690.36942941 1417.14556203 704.13732409 C1417.12613668 758.74244143 1417.1270383 813.34751955 1417.14648438 867.95263672 C1417.15136913 881.71358486 1417.15621334 895.47453301 1417.16077423 909.23548126 C1417.16105602 910.08279236 1417.16133782 910.93010347 1417.16162815 911.80309066 C1417.17025284 937.91521364 1417.17390999 964.02733335 1417.17217255 990.1394577 C1417.17209104 991.36904977 1417.17209104 991.36904977 1417.17200789 992.62348208 C1417.17075797 1010.6177911 1417.16822342 1028.61209978 1417.16453053 1046.60640845 C1417.16321397 1053.04488605 1417.16196165 1059.48336366 1417.16072769 1065.92184128 C1417.16041814 1067.52356755 1417.16010322 1069.12529383 1417.15978291 1070.7270201 C1417.15500844 1094.66805918 1417.1590745 1118.60908293 1417.16917769 1142.5501201 C1417.16967447 1143.72731863 1417.16967447 1143.72731863 1417.17018127 1144.92829895 C1417.17067737 1146.10332596 1417.17067737 1146.10332596 1417.17118348 1147.3020909 C1417.18221553 1173.72103977 1417.17815965 1200.13994915 1417.1570583 1226.55889237 C1417.15484888 1229.39585244 1417.15270207 1232.23281256 1417.15060425 1235.06977272 C1417.15008342 1235.76601115 1417.14956259 1236.46224957 1417.14902598 1237.17958614 C1417.14113664 1248.20369011 1417.14662913 1259.22774497 1417.15768027 1270.25184451 C1417.16826187 1281.09190617 1417.16420928 1291.93188133 1417.14562392 1302.77193256 C1417.1360879 1308.57047333 1417.13289863 1314.36882793 1417.14724785 1320.16736299 C1417.16016976 1325.44280925 1417.15467881 1330.71790421 1417.13452521 1335.99332488 C1417.13049776 1337.88948801 1417.13315795 1339.78568024 1417.14334896 1341.68182027 C1417.20604541 1354.23852594 1416.77470615 1365.85711076 1408.625 1376.1875 C1407.965 1377.04214844 1407.305 1377.89679688 1406.625 1378.77734375 C1405.965 1379.59332031 1405.305 1380.40929688 1404.625 1381.25 C1403.96757812 1382.11109375 1403.31015625 1382.9721875 1402.6328125 1383.859375 C1400.72308774 1386.13321071 1398.88381835 1387.80862604 1396.5 1389.5625 C1395.81679687 1390.07425781 1395.13359375 1390.58601563 1394.4296875 1391.11328125 C1392.625 1392.25 1392.625 1392.25 1390.625 1392.25 C1390.625 1392.91 1390.625 1393.57 1390.625 1394.25 C1388.97977193 1394.85581295 1387.33377676 1395.45954267 1385.6875 1396.0625 C1384.77097656 1396.39894531 1383.85445312 1396.73539063 1382.91015625 1397.08203125 C1381.82605469 1397.46746094 1380.74195312 1397.85289063 1379.625 1398.25 C1379.03883575 1398.49991948 1378.4526715 1398.74983895 1377.84874469 1399.00733175 C1370.67937171 1401.82526728 1363.62692257 1401.66453115 1356.02416134 1401.61914349 C1354.54017963 1401.62136481 1353.05619941 1401.62490313 1351.57222357 1401.62963298 C1347.49377818 1401.63882083 1343.41555789 1401.62933095 1339.3371293 1401.61679858 C1334.90046124 1401.6064813 1330.46381564 1401.61361116 1326.02714306 1401.61853105 C1318.25133467 1401.62474966 1310.47559516 1401.6198254 1302.69979477 1401.60761642 C1291.13747386 1401.58951257 1279.57519638 1401.5886089 1268.01286388 1401.59124239 C1248.56328015 1401.59518451 1229.11372698 1401.58515828 1209.66415215 1401.56719017 C1190.40471686 1401.54944329 1171.14529431 1401.53789318 1151.88585091 1401.53463173 C1150.68866595 1401.53442551 1149.49148098 1401.53421929 1148.25801769 1401.53400682 C1142.17819953 1401.53299183 1136.09838135 1401.53208768 1130.01856316 1401.5312262 C1086.94750674 1401.52492381 1043.87646696 1401.50470851 1000.80541992 1401.47631836 C958.96069426 1401.44876836 917.11597315 1401.4275159 875.27124023 1401.41479492 C873.98155966 1401.41440034 872.69187909 1401.41400576 871.36311729 1401.41359923 C858.41169637 1401.40964369 845.46027541 1401.40581625 832.50885442 1401.40208265 C806.12496703 1401.39447387 779.74107995 1401.38601011 753.35719299 1401.37702942 C752.14408617 1401.37661755 750.93097935 1401.37620568 749.68111172 1401.37578133 C668.6624009 1401.34817612 587.6436993 1401.30064014 506.625 1401.25 C506.60166942 1387.44659113 506.58408646 1373.6431853 506.57318783 1359.83976078 C506.56795834 1353.43100872 506.5608595 1347.02226985 506.54956055 1340.61352539 C506.53873401 1334.43440559 506.53272366 1328.25529852 506.53012276 1322.07616997 C506.52826808 1319.7129439 506.52464668 1317.34971856 506.51926994 1314.98649788 C506.51206262 1311.68898104 506.51100893 1308.39151753 506.51147461 1305.09399414 C506.50787933 1304.10641113 506.50428406 1303.11882812 506.50057983 1302.10131836 C506.5019545 1301.20804337 506.50332916 1300.31476837 506.50474548 1299.39442444 C506.50382369 1298.61366578 506.5029019 1297.83290712 506.50195217 1297.02848911 C506.625 1295.25 506.625 1295.25 507.625 1294.25 C509.38044965 1294.15217103 511.13988454 1294.12552777 512.898058 1294.1258015 C514.62789705 1294.12243055 514.62789705 1294.12243055 516.39268235 1294.11899149 C517.67839999 1294.12161852 518.96411764 1294.12424554 520.28879642 1294.12695217 C521.65992333 1294.12621349 523.03105006 1294.12503594 524.40217626 1294.12345598 C528.20334988 1294.12036753 532.00449704 1294.12357762 535.8056687 1294.12773425 C539.91889833 1294.13114626 544.03212508 1294.12879853 548.14535522 1294.12715149 C555.37304838 1294.12506633 562.60073332 1294.12673334 569.82842553 1294.13078487 C580.71551575 1294.13686776 591.60260097 1294.13715637 602.48969259 1294.13631957 C620.73140611 1294.13507523 638.97311604 1294.13838027 657.21482849 1294.14442444 C681.88015878 1294.15258261 706.54548292 1294.15452644 731.21081543 1294.15539551 C790.53637769 1294.16065281 849.86193891 1294.17461382 909.1875 1294.1875 C1107.8990625 1294.2184375 1107.8990625 1294.2184375 1310.625 1294.25 C1310.625 1026.95 1310.625 759.65 1310.625 484.25 C1309.305 483.92 1307.985 483.59 1306.625 483.25 C1304.25 481.5 1304.25 481.5 1301.625 479.25 C1297.70563626 475.95606664 1293.74139787 472.79441926 1289.625 469.75 C1285.68206642 466.82459766 1281.84163592 463.82154871 1278.0625 460.6875 C1273.63595608 457.02830825 1269.08716047 453.61303322 1264.421875 450.265625 C1260.00978273 447.08596074 1255.67494714 443.804454 1251.33056641 440.53320312 C1248.09839909 438.10144369 1244.8612472 435.67632541 1241.625 433.25 C1240.2499806 432.21877586 1238.87498033 431.18752622 1237.5 430.15625 C1236.84 429.66125 1236.18 429.16625 1235.5 428.65625 C1227.625 422.75 1227.625 422.75 1224.74609375 420.58984375 C1222.42698312 418.85123641 1220.10659165 417.1144038 1217.78515625 415.37890625 C1210.91257368 410.23767948 1204.06437392 405.06945493 1197.27099609 399.82397461 C1190.53449154 394.62739127 1183.71727344 389.53803113 1176.87890625 384.4765625 C1169.95765894 379.33833229 1163.15458727 374.10539075 1156.5 368.625 C1150.97865203 364.07820564 1145.34042879 359.80572292 1139.48510742 355.69995117 C1135.33404719 352.78323051 1131.37021601 349.70570629 1127.4375 346.50390625 C1123.77400413 343.56802137 1120.04570775 340.72142202 1116.3125 337.875 C1115.57700928 337.31409668 1114.84151855 336.75319336 1114.08374023 336.17529297 C1112.61956798 335.05894846 1111.15529541 333.9427355 1109.69091797 332.82666016 C1106.74644257 330.57950556 1103.80978664 328.32228571 1100.875 326.0625 C1099.32232422 324.86753906 1099.32232422 324.86753906 1097.73828125 323.6484375 C1095.609925 322.00877534 1093.4822916 320.3682098 1091.35546875 318.7265625 C1090.25792052 317.88006826 1089.16026446 317.0337138 1088.0625 316.1875 C1087.5247998 315.77290527 1086.98709961 315.35831055 1086.43310547 314.93115234 C1082.81468185 312.14766549 1079.16411302 309.41076335 1075.5 306.6875 C1066.03216016 299.59901258 1057.0431391 291.9533667 1048.08203125 284.2421875 C1047.55033438 283.79384804 1047.01863752 283.34550858 1046.47082862 282.88358307 C1044.625 281.25 1044.625 281.25 1042.91680875 279.45737454 C1038.40574036 274.93102806 1035.19769684 273.44136797 1028.82234144 273.32218495 C1027.83582861 273.3389697 1026.84931579 273.35575445 1025.83290863 273.37304783 C1024.7633792 273.36328254 1023.69384977 273.35351726 1022.59191036 273.34345606 C1019.00111392 273.31921456 1015.41241888 273.34489328 1011.82165527 273.37025452 C1009.22436624 273.36307211 1006.62708418 273.3528191 1004.02981806 273.33975595 C998.37958955 273.31628701 992.72983446 273.31872594 987.07959747 273.33818626 C978.67803796 273.36700492 970.27686633 273.35569772 961.87529712 273.33618858 C947.74218416 273.30450583 933.60924778 273.30533484 919.47612 273.32469368 C905.48260351 273.34375504 891.48920514 273.34836576 877.49568176 273.33367729 C876.6256059 273.33277212 875.75553004 273.33186695 874.85908825 273.33093435 C870.44041147 273.32626227 866.02173502 273.32133201 861.60305864 273.31630235 C830.3056647 273.28114182 799.0083434 273.27838081 767.7109375 273.29467773 C737.30597018 273.3104358 706.90106022 273.31151557 676.49609375 273.29272461 C675.55887885 273.29215124 674.62166394 273.29157786 673.65604859 273.29098712 C664.24415021 273.28521286 654.83225205 273.27914021 645.42035401 273.27284893 C626.24723727 273.26003967 607.07411957 273.24922205 587.90100098 273.23960876 C587.01945225 273.23916431 586.13790353 273.23871985 585.22964121 273.23826192 C526.36142885 273.20881004 467.49321176 273.2257854 408.625 273.25 C408.69684079 361.20098516 408.76908886 449.1519702 408.8686676 560.52142334 C408.86995213 561.95196274 408.87123666 563.38250213 408.87252118 564.81304153 C408.89948675 594.83889932 408.9266573 624.86475693 408.95406473 654.89061433 C408.9678317 669.9730737 408.98155926 685.05553311 408.99524957 700.13799254 C408.99731496 702.41315775 408.99938148 704.68832296 409.00144804 706.96348817 C409.03326906 742.00749767 409.06424389 777.05150767 409.09277344 812.09552002 C409.0933871 812.84928524 409.09400076 813.60305047 409.09463302 814.37965707 C409.10452224 826.53297265 409.11434059 838.68628828 409.12414955 850.83960393 C409.15239542 885.83496903 409.18116329 920.83033335 409.21340275 955.82569504 C409.21406515 956.54499422 409.21472755 957.2642934 409.21541002 958.00538952 C409.22995894 973.79385282 409.2447775 989.58231586 409.25985154 1005.37077867 C409.26591161 1011.7230438 409.27193285 1018.07530897 409.27794075 1024.42757416 C409.27859923 1025.12281194 409.27925772 1025.81804971 409.27993616 1026.5343553 C409.30115083 1048.95352147 409.3192014 1071.37268881 409.33560037 1093.79185897 C409.35258648 1116.99345492 409.37307328 1140.19504529 409.39766841 1163.39663467 C409.41174955 1176.78426944 409.42302567 1190.17189988 409.43036438 1203.55954008 C409.43552996 1212.48847184 409.44427129 1221.41739535 409.45598774 1230.34632091 C409.46257097 1235.44283914 409.46753552 1240.53934548 409.46816199 1245.63586822 C409.46876145 1250.26503907 409.47387816 1254.89418127 409.48272062 1259.52334351 C409.48509959 1261.19459769 409.48578015 1262.86585529 409.4846265 1264.53711077 C409.48330711 1266.79448059 409.48805577 1269.05175722 409.49438947 1271.3091166 C409.49548134 1272.5625769 409.4965732 1273.8160372 409.49769815 1275.10748114 C409.60360153 1277.7217665 409.91001388 1279.76370258 410.625 1282.25 C410.8565695 1284.77883381 411.0406277 1287.28614359 411.17578125 1289.8203125 C411.23853996 1290.98700974 411.23853996 1290.98700974 411.30256653 1292.17727661 C411.8066437 1302.63901006 411.81102702 1313.10884368 411.81030273 1323.58056641 C411.81249221 1327.11242688 411.83073189 1330.6439755 411.84960938 1334.17578125 C411.8762945 1345.01948688 411.65937082 1355.66414503 410.39945984 1366.43687439 C408.99869252 1378.9610187 408.95820257 1391.59976081 408.625 1404.1875 C408.07407246 1424.97214262 407.33890691 1445.61496398 404.125 1466.1875 C404.00769531 1466.99638672 403.89039063 1467.80527344 403.76953125 1468.63867188 C403.09889093 1473.04831224 402.05874427 1477.01650315 400.625 1481.25 C400.12696066 1483.89617604 399.67125258 1486.52982908 399.25 1489.1875 C396.60268329 1504.57024156 393.34567705 1523.21222581 380 1533.25 C379.25492188 1533.74371094 378.50984375 1534.23742188 377.7421875 1534.74609375 C375.43978502 1536.38156415 373.9003209 1538.12402838 372.125 1540.3125 C369.77997875 1543.1383117 367.51964173 1545.15536325 364.421875 1547.12109375 C359.95503077 1550.01756305 355.66458366 1553.09941381 351.375 1556.25 C341.32992945 1563.56186954 331.01370011 1570.43863679 320.625 1577.25 C319.48949707 1577.99660889 319.48949707 1577.99660889 318.33105469 1578.75830078 C303.85849394 1588.26097769 289.12823257 1597.29667345 274.125 1605.9375 C273.21008789 1606.46722412 272.29517578 1606.99694824 271.35253906 1607.54272461 C270.50401367 1608.02749268 269.65548828 1608.51226074 268.78125 1609.01171875 C268.02650391 1609.44444092 267.27175781 1609.87716309 266.49414062 1610.32299805 C264.625 1611.25 264.625 1611.25 262.625 1611.25 C262.625 1611.91 262.625 1612.57 262.625 1613.25 C261.09770264 1613.89195312 261.09770264 1613.89195312 259.53955078 1614.546875 C255.96207299 1616.0810261 252.47510947 1617.76031731 248.9921875 1619.5 C248.39246124 1619.79938477 247.79273499 1620.09876953 247.17483521 1620.40722656 C245.91896275 1621.03482535 244.66358579 1621.66341657 243.40869141 1622.29296875 C241.49920637 1623.25039793 239.58761405 1624.20351917 237.67578125 1625.15625 C236.44778829 1625.77057678 235.21991939 1626.38515164 233.9921875 1627 C232.33872314 1627.82757812 232.33872314 1627.82757812 230.65185547 1628.671875 C227.90628283 1630.10334633 225.27210242 1631.64651429 222.625 1633.25 C221.36975614 1633.76863369 220.09878774 1634.25151616 218.8125 1634.6875 C215.98041783 1635.70047321 213.35149317 1636.85432231 210.6875 1638.25 C205.67309822 1640.82657009 200.32050014 1643.25 194.625 1643.25 C194.625 1643.91 194.625 1644.57 194.625 1645.25 C185.92297695 1648.43665633 177.16478494 1651.43965592 168.375 1654.375 C167.37017578 1654.71144531 166.36535156 1655.04789063 165.33007812 1655.39453125 C159.85816346 1657.21490523 154.37357574 1658.95740725 148.83886719 1660.57739258 C146.57773001 1661.26436136 144.35303687 1662.02537401 142.125 1662.8125 C138.20481887 1664.13985958 134.29965293 1664.96365109 130.234375 1665.71484375 C127.44356648 1666.28721017 124.73877579 1667.02945222 122 1667.8125 C117.52650845 1669.07702389 113.23720564 1669.73753271 108.625 1670.25 C108.295 1670.58 107.965 1670.91 107.625 1671.25 C100.71318513 1673.06449601 93.66355854 1673.73619673 86.5625 1674.3125 C84.69627767 1674.46600979 82.83036455 1674.62334405 80.96484375 1674.78515625 C80.15394287 1674.850979 79.34304199 1674.91680176 78.50756836 1674.98461914 C76.61566169 1675.05884468 76.61566169 1675.05884468 75.625 1676.25 C48.25314996 1680.83520874 17.03101583 1680.01161002 -10.375 1676.25 C-10.375 1675.59 -10.375 1674.93 -10.375 1674.25 C-11.29539062 1674.28480469 -12.21578125 1674.31960938 -13.1640625 1674.35546875 C-22.34976614 1674.55190437 -30.41977149 1673.49134258 -39.375 1671.25 C-41.81207895 1670.70644208 -44.24956291 1670.164696 -46.6875 1669.625 C-52.24747278 1668.37752722 -52.24747278 1668.37752722 -53.375 1667.25 C-54.76364434 1666.94443774 -56.16181264 1666.68199192 -57.5625 1666.4375 C-76.83118002 1662.69839354 -96.1881787 1655.56695964 -113.625 1646.625 C-116.9446644 1644.9651678 -120.31481777 1643.42291331 -123.6875 1641.875 C-130.74939306 1638.62127282 -137.57637175 1635.02192023 -144.375 1631.25 C-144.375 1630.59 -144.375 1629.93 -144.375 1629.25 C-145.22707031 1628.99476562 -146.07914063 1628.73953125 -146.95703125 1628.4765625 C-156.16009864 1625.17397603 -164.58399571 1619.34070455 -172.35546875 1613.4921875 C-174.62721955 1611.80527294 -176.90919241 1610.1743557 -179.23828125 1608.5703125 C-193.48808626 1598.74423348 -206.76579244 1587.95356592 -219.34765625 1576.06640625 C-221.52280781 1574.01609702 -223.75554554 1572.05252847 -226.0234375 1570.10546875 C-231.00917078 1565.761528 -235.72821214 1561.15474241 -240.4206543 1556.49951172 C-241.42921986 1555.50247169 -242.44223766 1554.50991471 -243.4597168 1553.52197266 C-260.23840613 1537.22730998 -267.63562851 1519.96739989 -268.05065918 1496.54708862 C-268.08352204 1495.17060893 -268.11688954 1493.7941412 -268.15069914 1492.41768444 C-268.60365281 1472.30979399 -268.54475925 1452.1895678 -268.56094404 1432.07784756 C-268.56700477 1425.8924558 -268.57868798 1419.70707408 -268.58964443 1413.52168941 C-268.60796791 1402.76398952 -268.62290938 1392.00629065 -268.63548088 1381.24858284 C-268.64885066 1369.83208866 -268.6644258 1358.41560053 -268.68268013 1346.99911308 C-268.68383127 1346.27890606 -268.68498241 1345.55869903 -268.68616844 1344.81666755 C-268.69204427 1341.14910285 -268.69796246 1337.48153822 -268.70390042 1333.81397361 C-268.7160159 1326.32327796 -268.72783763 1318.83258184 -268.73956203 1311.34188557 C-268.7407396 1310.5896381 -268.74191717 1309.83739064 -268.74313042 1309.0623478 C-268.76997348 1291.86695402 -268.7938706 1274.67155634 -268.81753207 1257.47615794 C-268.90014654 1197.44721132 -268.99642262 1137.41828591 -269.09362719 1077.38936139 C-269.11202243 1066.02864052 -269.13020751 1054.66791935 -269.14824428 1043.30719791 C-269.27202787 965.38042661 -269.4173576 887.45385452 -269.66015625 809.52734375 C-269.66611821 807.60832675 -269.67207971 805.68930976 -269.67804074 803.77029276 C-269.73251716 786.25658508 -269.78822096 768.74288139 -269.84478697 751.22918034 C-270.14954207 656.86993109 -270.38564673 562.51076183 -270.55244256 350.26890805 C-270.55844502 332.94237996 -270.56947944 315.61586065 -270.58328247 298.28933716 C-270.5987275 278.80109309 -270.6067597 259.31286169 -270.60475016 239.82461125 C-270.60386847 229.8331585 -270.60604077 219.84173025 -270.61687088 209.85028267 C-270.62587543 201.52499372 -270.62824506 193.19973843 -270.62145953 184.87444669 C-270.61822806 180.67163203 -270.61821027 176.46888271 -270.62687886 172.2660743 C-270.63468402 168.4458008 -270.63337399 164.62564636 -270.62458728 160.80537599 C-270.6230422 159.42614281 -270.62489827 158.0469009 -270.63044454 156.66767801 C-270.63745854 154.80235218 -270.63104297 152.9369901 -270.62388897 151.07166481 C-270.62410634 150.03608236 -270.62432371 149.00049991 -270.62454766 147.93353617 C-270.36926431 145.18832066 -269.72561354 143.61688673 -268.375 141.25 C-268.07615815 139.71705197 -267.83141401 138.17310509 -267.625 136.625 C-266.23015622 128.22163788 -263.17924372 120.26590422 -260.375 112.25 C-259.715 112.25 -259.055 112.25 -258.375 112.25 C-258.045 109.28 -257.715 106.31 -257.375 103.25 C-255.89 102.755 -255.89 102.755 -254.375 102.25 C-254.32601562 101.63511719 -254.27703125 101.02023437 -254.2265625 100.38671875 C-254.15179687 99.57847656 -254.07703125 98.77023437 -254 97.9375 C-253.93039062 97.13699219 -253.86078125 96.33648438 -253.7890625 95.51171875 C-253.375 93.25 -253.375 93.25 -251.375 90.25 C-250.715 90.25 -250.055 90.25 -249.375 90.25 C-248.27967577 88.13758898 -247.31566346 86.08535446 -246.5078125 83.84375 C-241.11047182 71.485701 -224.40565817 65.62136292 -212.96875 60.0390625 C-209.78857039 58.48488848 -206.68042495 56.87586899 -203.62109375 55.09375 C-200.74053957 53.45762296 -197.98542897 52.39038518 -194.875 51.296875 C-191.41218152 49.84681976 -188.16771393 48.04785973 -184.875 46.25 C-179.78623056 43.47419432 -174.85400452 41.17245773 -169.375 39.25 C-168.15875901 38.64053112 -166.95077283 38.01440524 -165.75 37.375 C-161.17227435 35.02880535 -156.39238408 33.41796835 -151.5390625 31.734375 C-147.57642197 30.34445028 -143.66976367 28.82375063 -139.75756836 27.29858398 C-130.91752213 23.85914214 -122.08686886 20.82149301 -112.953125 18.265625 C-110.21205397 17.48759174 -107.55364686 16.64854124 -104.875 15.6875 C-100.08000727 14.03661276 -95.13698745 12.96509574 -90.19140625 11.87084961 C-85.70620758 10.86135893 -81.34308894 9.63230844 -76.9453125 8.2890625 C-69.30025086 6.08199229 -61.64217769 4.89689034 -53.76196289 3.86694336 C-51.4417608 3.56305805 -49.12427373 3.24276041 -46.80664062 2.91992188 C-31.22395798 0.78797516 -15.71664206 0.01340842 0 0 Z " fill="#FEFEFE" transform="translate(1002.375,761.75)"/>
<path d="M0 0 C8.72206591 -0.08767057 17.44411978 -0.15373407 26.1664896 -0.20248926 C31.17628628 -0.23120343 36.18549602 -0.2697678 41.19496202 -0.33495587 C45.7797656 -0.39441821 50.36387941 -0.42561527 54.94905138 -0.43477625 C56.60027694 -0.44299672 58.251492 -0.46140273 59.9024663 -0.49135727 C70.91610938 -0.68384505 80.23329536 0.52547295 88.82875872 8.17985564 C94.58292541 14.12320058 96.69156345 19.99011958 96.94851732 28.17153102 C96.58200817 39.00391251 92.27594113 44.65599444 84.57351732 52.17153102 C78.74305182 57.60536622 70.61630295 58.61995055 62.96595812 58.57025844 C62.1459554 58.57690562 61.32595268 58.5835528 60.48110139 58.59040141 C57.74997764 58.60894653 55.01929624 58.60643066 52.28811693 58.60390407 C50.309825 58.6129341 48.33153862 58.62325988 46.35325956 58.63477069 C40.94856654 58.66243889 35.54397876 58.67163441 30.13922405 58.67761666 C24.35713939 58.6871589 18.57512925 58.71360656 12.7930913 58.73792201 C1.58307292 58.7823211 -9.62693073 58.81074895 -20.83701181 58.83347178 C-29.88603337 58.85219174 -38.93501631 58.87737019 -47.98400831 58.90706569 C-49.9076484 58.91337253 -49.9076484 58.91337253 -51.87014991 58.91980678 C-54.46632778 58.9283414 -57.06250562 58.93688602 -59.65868342 58.94544059 C-89.48849814 59.04262119 -119.31834611 59.10624655 -149.14826918 59.15862972 C-155.03748622 59.16898252 -160.92670189 59.17994412 -166.81591731 59.1911813 C-193.79729879 59.24261325 -220.77865376 59.27991252 -247.76008177 59.29357463 C-251.32601303 59.29542225 -254.89194326 59.29781124 -258.45787382 59.30070812 C-268.52884288 59.30883132 -278.59978568 59.31183216 -288.67075682 59.30603915 C-291.6507142 59.30446381 -294.63065775 59.30498341 -297.6106143 59.30763751 C-311.20340206 59.31825491 -324.78894452 59.25821075 -338.37496901 58.78823024 C-339.38097749 58.75788755 -340.38698597 58.72754485 -341.42347956 58.69628268 C-350.96144473 58.31008625 -358.28875533 56.85073199 -365.42648268 50.17153102 C-371.13534232 43.74003092 -372.86937985 37.45730257 -372.67257643 28.91371852 C-372.02704679 21.72067401 -368.88861012 15.91139368 -363.42648268 11.17153102 C-352.47477229 3.94663117 -338.54524705 4.05940749 -325.78390455 3.62050563 C-324.69449316 3.58037066 -323.60508177 3.54023568 -322.48265791 3.4988845 C-311.01819561 3.09304342 -299.55267269 2.85590956 -288.08273268 2.67543727 C-286.87097868 2.65565885 -285.65922468 2.63588042 -284.41075087 2.61550266 C-239.15808094 1.88793414 -193.89847039 1.58917046 -148.64191008 1.20873922 C-139.58586288 1.13231115 -130.52984893 1.05258076 -121.47384596 0.97109157 C-93.91027636 0.72368767 -66.34675994 0.49654452 -38.78263807 0.31966907 C-25.85479456 0.23579655 -12.92744358 0.13203962 0 0 Z " fill="#FEFEFE" transform="translate(1881.4264826774597,1115.828468978405)"/>
<path d="M0 0 C5.83706336 -0.0061344 11.6741171 -0.01769021 17.51117373 -0.02829051 C31.46069253 -0.052357 45.41021435 -0.06733916 59.35974729 -0.08035058 C63.30790802 -0.08408592 67.25606845 -0.08805667 71.20422888 -0.09210324 C95.83956409 -0.11728007 120.47490008 -0.13929551 145.11024523 -0.15183139 C150.76107966 -0.15475092 156.41191406 -0.15771899 162.06274843 -0.1607368 C162.76451676 -0.16110771 163.4662851 -0.16147862 164.18931914 -0.16186077 C187.06678805 -0.17408238 209.94418123 -0.20517803 232.82161444 -0.24665832 C256.45441569 -0.28942944 280.08717674 -0.31606666 303.72001773 -0.3213061 C317.59697278 -0.324388 331.47381834 -0.33521529 345.35073519 -0.36985469 C356.55699491 -0.39778959 367.76310816 -0.40888119 378.96940002 -0.39765923 C384.68212143 -0.39246347 390.39453552 -0.39542208 396.10721254 -0.42012477 C401.33379142 -0.44253936 406.55984069 -0.44193842 411.78642836 -0.4229209 C413.67733953 -0.42011078 415.56828607 -0.4257753 417.45914015 -0.44073384 C434.89503886 -0.57025922 434.89503886 -0.57025922 441.50122499 5.18936086 C442.42934999 5.99373586 443.35747499 6.79811086 444.31372499 7.62686086 C448.86793345 12.96179076 450.13931007 17.37965952 449.90356874 24.31045461 C449.07421045 30.24479505 446.89102346 35.13549492 442.30591249 39.07607961 C440.08591289 40.58904964 437.87446486 41.93269002 435.50122499 43.18936086 C434.91147512 43.5376038 434.32172525 43.88584674 433.71410418 44.2446425 C430.97848935 45.41252621 428.88499654 45.44838785 425.91156435 45.46110463 C424.19771296 45.47568212 424.19771296 45.47568212 422.4492383 45.49055409 C420.56989847 45.49143781 420.56989847 45.49143781 418.65259218 45.49233937 C417.31336888 45.50001005 415.97415036 45.50855821 414.63493776 45.5179131 C411.73065835 45.53625715 408.82644406 45.54825951 405.9221158 45.55545163 C401.20527599 45.56714678 396.48856713 45.59274979 391.77179384 45.61976552 C384.16454063 45.66165081 376.55727955 45.6938327 368.94996524 45.72223967 C355.81260204 45.77163085 342.67531802 45.8386183 329.53803331 45.90536726 C325.29635848 45.92688348 321.05468217 45.94777571 316.81299829 45.96743321 C296.23866992 46.06311697 275.66562523 46.20395512 255.09228945 46.43008351 C253.06379534 46.45226001 251.03530114 46.4744281 249.00680685 46.49658799 C247.99045957 46.50769815 246.97411229 46.51880831 245.92696661 46.53025514 C184.13085744 47.20514626 122.33851044 47.40835428 60.53925943 47.42680383 C57.51819912 47.42772428 54.49713881 47.42865357 51.47607851 47.42959523 C50.35252921 47.42993172 50.35252921 47.42993172 49.20628195 47.43027502 C36.82101111 47.43429864 24.43579616 47.45207381 12.05054726 47.47495475 C-0.89483254 47.49866892 -13.84018373 47.51112801 -26.78558558 47.51229668 C-33.9659019 47.51320519 -41.14614163 47.51876106 -48.32643652 47.53711629 C-54.99177726 47.55411419 -61.65694618 47.55577269 -68.32231092 47.54697728 C-70.75435674 47.54620773 -73.18641053 47.55053874 -75.61843634 47.56043553 C-78.94166441 47.5731712 -82.26437154 47.56727214 -85.58759642 47.55685353 C-87.01479434 47.56893814 -87.01479434 47.56893814 -88.47082454 47.58126688 C-98.01460714 47.51152361 -106.83856046 46.01583471 -113.83861876 39.13076711 C-118.65669423 33.49645296 -120.24657832 28.30277432 -119.94799376 20.86904836 C-118.99128972 15.16210081 -115.76573898 11.13054979 -111.56127501 7.31436086 C-107.13480665 4.24293383 -103.87381785 3.18936086 -98.49877501 3.18936086 C-98.49877501 2.52936086 -98.49877501 1.86936086 -98.49877501 1.18936086 C-65.66340459 0.45774559 -32.84332971 0.02878826 0 0 Z " fill="#FBFBFE" transform="translate(1729.4987750053406,1323.81063914299)"/>
<path d="M0 0 C5.45116087 -0.07879942 10.90232245 -0.13688473 16.3538337 -0.18499483 C18.41471817 -0.20768687 20.47553143 -0.23902376 22.53612688 -0.28032912 C41.76228248 -0.66258113 41.76228248 -0.66258113 49.22682777 5.14514898 C53.31219655 9.07922627 56.851739 13.09210091 57.56276527 18.87952398 C57.66528747 26.79423828 56.90331312 32.18953784 51.42604652 38.08264898 C43.95414999 45.04674672 37.50805438 46.58941119 27.54689613 46.61951422 C26.46069795 46.63456314 25.37449977 46.64961206 24.2553865 46.66511701 C20.54667063 46.71281289 16.83809284 46.7393561 13.12917152 46.76624273 C10.3945938 46.79508178 7.66007314 46.82831297 4.92554298 46.86132025 C-1.22650035 46.93327485 -7.37858539 46.99408099 -13.53080163 47.04914068 C-23.43646438 47.13834027 -33.34177148 47.25251108 -43.24714396 47.36911534 C-70.56792834 47.68949805 -97.8891892 47.95485498 -125.21067223 48.20764898 C-126.39433609 48.21866077 -127.57799995 48.22967256 -128.79753241 48.24101805 C-206.00701028 48.95888134 -283.21311544 49.36277836 -360.42584828 49.39009302 C-369.09671287 49.3932918 -377.76756515 49.40108962 -386.43842492 49.41056036 C-398.08338439 49.42277657 -409.72829685 49.42274004 -421.37325845 49.41385053 C-425.65064317 49.41086992 -429.92799125 49.4122079 -434.20537362 49.41744779 C-439.13282421 49.42318861 -444.06017295 49.41934964 -448.9876127 49.40788423 C-450.76818416 49.40529947 -452.54876431 49.40604435 -454.32933209 49.41049467 C-478.82021799 49.46601648 -478.82021799 49.46601648 -485.77317223 43.14514898 C-490.79182142 37.03951126 -492.62635965 31.73787763 -492.15207848 23.83655523 C-491.10061083 16.36788293 -486.53746111 12.50531621 -480.77317223 8.14514898 C-480.0951882 7.62708069 -479.41720417 7.1090124 -478.71867517 6.57524507 C-474.61725171 4.58392821 -471.01783871 4.67564509 -466.51231274 4.65033029 C-465.59370538 4.63367044 -464.67509801 4.61701059 -463.72865405 4.5998459 C-460.70005673 4.54848278 -457.67163126 4.51794318 -454.64275536 4.48769354 C-452.50976373 4.45600532 -450.37678977 4.42310701 -448.24383465 4.38904982 C-442.78918195 4.30569286 -437.33448132 4.23990492 -431.87952435 4.1801454 C-428.09561017 4.13751551 -424.31183111 4.08696433 -420.52802491 4.0357698 C-409.92294965 3.89313743 -399.31764633 3.78801434 -388.71207068 3.6909114 C-383.7173273 3.64454857 -378.72261599 3.59491928 -373.72789941 3.54576849 C-364.01666456 3.4507009 -354.30540461 3.3585127 -344.59413153 3.26744453 C-336.67900749 3.19315816 -328.76389503 3.11773107 -320.84878907 3.04154371 C-319.13984383 3.02509478 -319.13984383 3.02509478 -317.39637444 3.00831354 C-315.07974708 2.98600997 -312.76311975 2.96370349 -310.44649244 2.94139415 C-288.87015453 2.73373247 -267.29378654 2.52935198 -245.71740587 2.32618892 C-227.32898832 2.15297257 -208.94059793 1.97708633 -190.55222497 1.79920172 C-169.04212322 1.5911203 -147.53200728 1.38461774 -126.02186647 1.18061047 C-123.7142452 1.15872124 -121.40662394 1.13683059 -119.09900269 1.11493849 C-117.3972556 1.09879631 -117.3972556 1.09879631 -115.66112977 1.08232802 C-107.78574602 1.00752568 -99.91037311 0.93164394 -92.03500352 0.85536741 C-87.67772306 0.81327069 -83.32044162 0.77127714 -78.96315942 0.72936224 C-77.9053321 0.71917868 -76.84750478 0.70899512 -75.75762209 0.69850297 C-59.97202427 0.54705319 -44.18634856 0.41207891 -28.40047632 0.29260495 C-18.93319135 0.22088149 -9.4665852 0.13705036 0 0 Z " fill="#FDFDFE" transform="translate(2109.7731722332537,1538.8548510186374)"/>
<path d="M0 0 C5.32174208 -0.01534934 10.64332144 -0.04349339 15.96497637 -0.0771603 C22.39501772 -0.11753884 28.82481164 -0.14010439 35.25498533 -0.13891906 C38.50825056 -0.13866736 41.76087989 -0.14864632 45.01405436 -0.17491955 C48.52482071 -0.20162687 52.03420954 -0.19726043 55.54502398 -0.1847958 C56.55874858 -0.19963544 57.57247319 -0.21447508 58.61691672 -0.2297644 C65.95124654 -0.15379848 70.89485058 1.7213322 76.1331473 6.92809731 C81.19610001 12.72735466 82.01257965 16.88811722 81.85654742 24.44191319 C81.2629862 31.61175583 77.91998416 35.78285134 72.61045367 40.41456944 C71.95045367 40.41456944 71.29045367 40.41456944 70.61045367 40.41456944 C70.61045367 41.07456944 70.61045367 41.73456944 70.61045367 42.41456944 C69.29045367 42.41456944 67.97045367 42.41456944 66.61045367 42.41456944 C66.61045367 43.07456944 66.61045367 43.73456944 66.61045367 44.41456944 C63.56777986 45.29254905 60.81308812 45.56075136 57.65072161 45.61195713 C56.64948448 45.63030613 55.64824736 45.64865513 54.61666971 45.66756016 C53.52205738 45.6826865 52.42744505 45.69781285 51.29966265 45.71339756 C49.56002214 45.74255253 49.56002214 45.74255253 47.78523737 45.77229649 C44.586368 45.82435864 41.38747267 45.87190051 38.18849784 45.91694409 C36.15793327 45.94597835 34.12740202 45.97674366 32.09687144 46.00806004 C-2.53551831 46.54065214 -37.17094426 46.7397851 -71.80653852 46.94063145 C-79.89191529 46.98752741 -87.97726703 47.03643388 -96.06258869 47.09211832 C-99.49471035 47.11557147 -102.92682104 47.13717978 -106.35898107 47.15420872 C-110.12303581 47.17354107 -113.88701042 47.19867567 -117.65102094 47.22511631 C-118.7585623 47.22930073 -119.86610365 47.23348515 -121.00720686 47.23779637 C-122.02955427 47.24614002 -123.05190168 47.25448368 -124.10522932 47.26308018 C-125.42714985 47.27081078 -125.42714985 47.27081078 -126.77577585 47.27869755 C-129.46022724 47.36818339 -129.46022724 47.36818339 -132.35690588 47.91414887 C-135.35970482 48.40964524 -138.15545073 48.55283739 -141.19611067 48.57278782 C-142.3378619 48.58257853 -143.47961313 48.59236923 -144.65596288 48.60245663 C-146.52185158 48.61108699 -146.52185158 48.61108699 -148.42543501 48.6198917 C-149.76708281 48.62947953 -151.10872776 48.63947377 -152.45036978 48.64983898 C-156.1264235 48.67695389 -159.80249013 48.69794855 -163.47858924 48.71781665 C-166.62503909 48.73559491 -169.77146081 48.75692771 -172.91788805 48.77829278 C-183.24053391 48.84835001 -193.56323106 48.90686645 -203.88596338 48.9625116 C-206.56850695 48.97702324 -209.25104904 48.99178276 -211.93359083 49.00661808 C-233.18820435 49.12396666 -254.44285878 49.22862559 -275.69758552 49.32316643 C-288.63716146 49.38083163 -301.57665182 49.44769418 -314.51613933 49.52254647 C-330.89914713 49.61725569 -347.28208687 49.69422398 -363.66530603 49.74120003 C-371.75427921 49.76476587 -379.84303464 49.79626305 -387.93187422 49.84917027 C-394.79537738 49.89397909 -401.65867652 49.92156385 -408.52232897 49.92658508 C-412.00821989 49.92962668 -415.49358817 49.9405787 -418.97933477 49.97363049 C-422.75300139 50.00508334 -426.52545232 50.00544704 -430.2992143 49.99806553 C-431.38681138 50.0144737 -432.47440845 50.03088187 -433.59496301 50.04778725 C-441.93390021 49.97969307 -448.72531054 47.89935609 -454.86220258 42.06300694 C-455.38685102 41.31277256 -455.91149946 40.56253819 -456.45204633 39.78956944 C-456.9998979 39.03417881 -457.54774946 38.27878819 -458.11220258 37.50050694 C-460.86909099 32.99843229 -460.98752851 28.5389445 -460.38954633 23.41456944 C-458.42886451 17.43662106 -455.00903008 12.24872138 -449.28424543 9.34772068 C-443.09122998 6.73649686 -437.75475328 5.76726701 -431.06532758 5.62160069 C-430.05158567 5.58555729 -429.03784376 5.5495139 -427.99338239 5.51237828 C-424.56324249 5.39748289 -421.13306195 5.3115442 -417.70204633 5.22706944 C-415.2051245 5.1527595 -412.70821739 5.07795322 -410.21132368 5.0027042 C-381.41812704 4.19126077 -352.60739383 3.98521251 -323.80482954 3.75563389 C-303.94328409 3.59545507 -284.08754733 3.36028436 -264.22939008 2.95363194 C-177.7129115 1.19030831 -91.15388714 0.2478516 0 0 Z " fill="#FDFDFE" transform="translate(2074.3895463347435,1861.5854305624962)"/>
<path d="M0 0 C4.39431093 -0.04029738 8.78863746 -0.06822436 13.1830616 -0.09282017 C15.20087958 -0.10671118 17.21866968 -0.12580811 19.23638344 -0.1505785 C21.98152157 -0.18358518 24.72615127 -0.19780143 27.47145653 -0.20746136 C28.2583675 -0.2215523 29.04527847 -0.23564323 29.85603523 -0.25016117 C38.18922691 -0.23704224 44.53973509 2.49604661 50.62428856 8.221982 C55.06837075 13.13601312 55.83101297 18.29855189 55.60866356 24.67901325 C54.77138609 31.79013695 50.81557812 36.81266929 45.78444481 41.550107 C41.39222036 44.92650861 37.43040787 45.44731407 31.95853519 45.72297287 C30.90051946 45.77788696 30.90051946 45.77788696 29.82112966 45.83391043 C22.7088468 46.17981573 15.59546899 46.28626854 8.47556114 46.33503437 C7.05510972 46.34790911 5.63466167 46.3611597 4.21421689 46.37474674 C0.3569914 46.41055897 -3.50025958 46.44105841 -7.35753763 46.47058284 C-11.54323405 46.50357207 -15.72888548 46.54158894 -19.91454506 46.5789156 C-28.12917522 46.65135017 -36.34383769 46.71907355 -44.55852201 46.78504915 C-51.3090126 46.83933558 -58.05948776 46.89526786 -64.8099556 46.95231152 C-65.7796191 46.96050211 -66.74928261 46.9686927 -67.74832985 46.9771315 C-69.72109107 46.99379877 -71.69385226 47.01046824 -73.66661344 47.02713989 C-92.19797356 47.18352907 -110.72937546 47.33441641 -129.26079527 47.48353975 C-144.84202939 47.60906399 -160.42321357 47.7396821 -176.00437355 47.87408161 C-229.99232563 48.33911197 -283.98037199 48.76206343 -337.96938121 49.08466685 C-340.6619242 49.10080096 -343.35446596 49.11712794 -346.04700756 49.13349152 C-365.80258839 49.25310432 -385.55807789 49.35718946 -405.31397778 49.40506476 C-406.80105056 49.40867262 -408.28812332 49.41228567 -409.77519608 49.41590405 C-410.50257832 49.41765996 -411.22996057 49.41941587 -411.9793847 49.42122499 C-417.01161791 49.43431174 -422.04374066 49.45743574 -427.07591248 49.48519802 C-433.66622325 49.52138382 -440.25634006 49.53689462 -446.84676719 49.53719354 C-449.21761983 49.54038302 -451.58847481 49.55027935 -453.9592669 49.56752181 C-457.16099383 49.58961982 -460.36176393 49.58695826 -463.56353188 49.5778017 C-464.4814892 49.58992854 -465.39944653 49.60205538 -466.34522074 49.6145497 C-473.1706996 49.55410787 -478.47891232 47.90897946 -483.66477394 43.3547945 C-485.02439268 41.61817234 -486.37268408 39.87991683 -487.67649269 38.10088825 C-488.29524269 37.33776325 -488.91399269 36.57463825 -489.55149269 35.78838825 C-491.72875172 30.58715835 -491.37602888 25.19949683 -489.61399269 19.91338825 C-485.24876144 13.57676225 -480.15564476 8.50246805 -472.67649269 6.10088825 C-467.02827625 5.42645583 -461.3906909 5.40005601 -455.70774269 5.34307575 C-453.91704425 5.31099287 -452.12637424 5.27729077 -450.33573341 5.24213886 C-445.3454459 5.14952727 -440.35507731 5.08205026 -435.36434364 5.01871586 C-431.0585199 4.9608687 -426.75299177 4.88838977 -422.44739342 4.8158989 C-406.29837275 4.54465277 -390.14863165 4.33422459 -373.99865532 4.13028717 C-370.78584688 4.08961255 -367.57304413 4.04849678 -364.36024094 4.00741076 C-330.91321564 3.57993553 -297.46597961 3.169733 -264.01828957 2.7976656 C-262.26807652 2.77815871 -260.51786354 2.75864687 -258.7676506 2.73913002 C-257.90564698 2.7295197 -257.04364336 2.71990939 -256.15551841 2.71000785 C-252.70267408 2.67150525 -249.24982998 2.63298179 -245.7969861 2.59443879 C-244.08086444 2.57529674 -242.36474245 2.55618432 -240.64862013 2.53710151 C-217.80935128 2.28297604 -194.97161823 1.98138836 -172.1339612 1.60991192 C-141.30438187 1.10866045 -110.47581573 0.80778021 -79.64323854 0.58347863 C-74.87517332 0.54861332 -70.10712906 0.51151434 -65.33909035 0.47320271 C-50.79625363 0.35660201 -36.25345376 0.25040022 -21.71036339 0.16922283 C-14.47337577 0.12784761 -7.23675666 0.07090105 0 0 Z " fill="#FEFEFE" transform="translate(2109.67649269104,1429.8991117477417)"/>
<path d="M0 0 C1.21232552 -0.02287771 2.42465103 -0.04575542 3.67371368 -0.0693264 C5.99293278 -0.11313549 8.31190206 -0.17618788 10.62993622 -0.26229286 C17.89185866 -0.36771144 22.82257972 0.8340169 28.70874023 5.18475342 C30.86499023 7.28240967 30.86499023 7.28240967 32.20874023 9.24725342 C32.67280273 9.89822998 33.13686523 10.54920654 33.61499023 11.21990967 C36.48358109 16.37312824 36.5029556 22.4588388 35.70874023 28.18475342 C33.18037615 34.45754597 29.78727277 39.14548715 23.70874023 42.18475342 C23.04874023 42.18475342 22.38874023 42.18475342 21.70874023 42.18475342 C21.70874023 42.84475342 21.70874023 43.50475342 21.70874023 44.18475342 C18.17469342 45.25702098 14.83069772 45.37124137 11.14868164 45.46600342 C10.49126732 45.48407295 9.833853 45.50214249 9.15651703 45.52075958 C6.95787105 45.57990795 4.75912135 45.63244547 2.56030273 45.68475342 C0.98891493 45.72512379 -0.58246556 45.76578009 -2.15383911 45.80670166 C-6.42689753 45.91637398 -10.70009181 46.01942434 -14.97335815 46.12063599 C-17.68213986 46.18513152 -20.39087724 46.25126724 -23.09960938 46.31781006 C-49.43584064 46.96215796 -75.77035005 47.41506756 -102.11260223 47.71081543 C-132.33558484 48.05028281 -162.5542282 48.54650707 -192.77371216 49.11868286 C-196.26611304 49.18428108 -199.75853884 49.24834663 -203.25097656 49.31195068 C-208.77106352 49.41268467 -214.29106355 49.51730642 -219.8110199 49.62495422 C-221.84880828 49.66419696 -223.88661957 49.70227103 -225.92445374 49.73905945 C-238.42929803 49.93874143 -238.42929803 49.93874143 -250.90869141 50.69842529 C-261.20132833 51.51423762 -271.53594288 51.3904145 -281.85479546 51.44511414 C-285.88045377 51.46649796 -289.9060428 51.49339087 -293.93165588 51.52178955 C-301.80844469 51.57645998 -309.6852666 51.62454765 -317.56210327 51.67173004 C-329.51222407 51.74356004 -341.46230752 51.82014088 -353.41235352 51.90350342 C-354.0987586 51.90821899 -354.78516369 51.91293457 -355.49236894 51.91779304 C-376.91269191 52.06567284 -398.32326956 52.40213658 -419.73821449 52.90362644 C-420.62607832 52.92437198 -421.51394215 52.94511751 -422.42871094 52.9664917 C-423.28967062 52.98661536 -424.1506303 53.00673903 -425.03767967 53.0274725 C-435.46853943 53.26558912 -445.89886949 53.37093969 -456.33251953 53.37005615 C-459.376829 53.37236575 -462.42083608 53.39108256 -465.46508789 53.40936279 C-467.45792526 53.41227937 -469.45076424 53.41427571 -471.44360352 53.41522217 C-472.32668686 53.42240768 -473.2097702 53.4295932 -474.11961365 53.43699646 C-482.6983619 53.40514745 -489.17195389 52.17733738 -495.52563477 46.09881592 C-499.48277432 41.80899649 -501.5054858 38.08813387 -501.72875977 32.12225342 C-501.3724303 25.1738289 -498.94962164 21.60799124 -493.91625977 16.93475342 C-489.4428545 12.96864153 -485.49926761 10.99110932 -479.48193359 10.80584717 C-478.53716156 10.77233658 -477.59238953 10.73882599 -476.61898804 10.70429993 C-475.58915802 10.67722458 -474.559328 10.65014923 -473.49829102 10.62225342 C-472.3962735 10.58611435 -471.29425598 10.54997528 -470.15884399 10.51274109 C-466.47403685 10.39444379 -462.78897346 10.28955892 -459.10375977 10.18475342 C-456.5068151 10.1041229 -453.90989157 10.02280934 -451.31298828 9.94085693 C-436.05966168 9.46540216 -420.80428734 9.05899687 -405.54907227 8.64959717 C-404.72311491 8.62739735 -403.89715755 8.60519753 -403.04617119 8.58232498 C-394.87812387 8.36301281 -386.71004351 8.14584242 -378.54162121 7.94091702 C-374.74848627 7.84556133 -370.95540456 7.74823098 -367.16235352 7.64959717 C-366.43587679 7.630744 -365.70940006 7.61189083 -364.96090889 7.59246635 C-357.32481793 7.39125002 -349.69965075 7.1515826 -342.07641602 6.65350342 C-330.31271322 5.8972405 -318.51851639 5.92389435 -306.73498535 5.79660034 C-298.90460376 5.71116475 -291.07448327 5.60524183 -283.24438477 5.49725342 C-281.99918438 5.48011638 -281.99918438 5.48011638 -280.72882843 5.46263313 C-260.11376513 5.17550135 -239.50168181 4.75780764 -218.8895874 4.30866623 C-216.11123411 4.24876214 -213.33284881 4.19069919 -210.55444336 4.13327026 C-191.70963557 3.74201643 -172.8795004 3.23559708 -154.04754639 2.42811584 C-124.86991415 1.17736218 -95.71929573 0.76335645 -66.51708984 0.5838623 C-61.49723719 0.55138013 -56.47744925 0.51198093 -51.45764923 0.4722805 C-23.8313062 0.25396272 -23.8313062 0.25396272 -16.88092804 0.23731041 C-11.25059486 0.22305587 -5.62850051 0.14947662 0 0 Z " fill="#FDFDFE" transform="translate(2132.291259765625,1742.8152465820313)"/>
<path d="M0 0 C4.77677686 -0.07800474 9.55333215 -0.1375222 14.33056641 -0.17868042 C15.993903 -0.19602021 17.65718529 -0.2201614 19.3203125 -0.2517395 C28.86573053 -0.42746826 35.99415913 -0.45918111 43.54248047 6.03710938 C48.37612327 11.79585127 50.80816746 16.32479087 50.54248047 24.10351562 C49.69266523 31.1350514 45.33094441 36.40132859 40.30029297 41.10742188 C37.61487544 42.73104284 36.5041967 43.10742188 33.30029297 43.10742188 C33.30029297 43.76742188 33.30029297 44.42742187 33.30029297 45.10742188 C-37.14327066 46.39246726 -107.58935158 47.49021731 -178.03703499 48.52175575 C-185.76576981 48.63497367 -193.49449043 48.74912505 -201.22320557 48.86367798 C-246.5515108 49.53483137 -291.87992606 50.16401306 -337.21064115 50.6497333 C-340.10293871 50.68076989 -342.99523229 50.71215867 -345.88752556 50.74359322 C-379.66232602 51.10863749 -413.43760171 51.30756084 -447.21411717 51.42718112 C-448.70801359 51.43288095 -450.20190632 51.43962339 -451.69579399 51.44728196 C-469.87787502 51.53321884 -469.87787502 51.53321884 -475.53401184 46.4631958 C-477.10328405 44.76397851 -478.40800232 43.02427855 -479.69970703 41.10742188 C-480.31845703 40.19992187 -480.93720703 39.29242187 -481.57470703 38.35742188 C-483.62225982 32.44226937 -483.6201317 26.51805791 -481.38720703 20.66992188 C-480.83033203 19.82429688 -480.27345703 18.97867187 -479.69970703 18.10742188 C-479.20470703 17.32367187 -478.70970703 16.53992187 -478.19970703 15.73242188 C-477.70470703 15.19617187 -477.20970703 14.65992188 -476.69970703 14.10742188 C-475.70970703 14.10742188 -474.71970703 14.10742188 -473.69970703 14.10742188 C-473.47283203 13.48867187 -473.24595703 12.86992188 -473.01220703 12.23242188 C-471.20453518 9.30571507 -470.02283372 9.08541264 -466.69970703 8.10742188 C-463.23160058 7.72198656 -459.76420076 7.62835812 -456.27758789 7.52954102 C-454.64274665 7.47356782 -454.64274665 7.47356782 -452.97487831 7.41646385 C-449.22586705 7.29303588 -445.47660465 7.18568197 -441.72705078 7.08007812 C-440.37397902 7.03962557 -439.02091553 6.99889578 -437.66786003 6.95790291 C-393.54187535 5.63231161 -349.3896343 5.23837676 -305.24896944 4.68376219 C-293.08945036 4.53079879 -280.93001652 4.37153336 -268.77058733 4.21160674 C-250.01924404 3.96504503 -231.2678661 3.72128077 -212.51645339 3.48006082 C-190.56032187 3.19751857 -168.60423749 2.91188358 -146.64834404 2.61134529 C-143.65777675 2.57042637 -140.66720346 2.53000927 -137.67662239 2.4901104 C-122.20254255 2.2833317 -106.73191963 2.03561691 -91.26220703 1.60742188 C-89.67393643 1.5639914 -88.08566434 1.52061568 -86.49739075 1.47729492 C-85.37678017 1.44671903 -85.37678017 1.44671903 -84.233531 1.41552544 C-60.92600795 0.78350188 -37.60778799 0.50349182 -14.29394531 0.20703125 C-9.52912918 0.14623854 -4.76456065 0.07824959 0 0 Z " fill="#FDFDFE" transform="translate(2106.69970703125,1638.892578125)"/>
<path d="M0 0 C0.66 0.33 1.32 0.66 2 1 C-2.62 5.62 -7.24 10.24 -12 15 C-12 10.09687565 -8.29800369 7.38658643 -5 4 C-3.37458956 2.61667196 -1.72614587 1.25537882 0 0 Z " fill="#DADDF6" transform="translate(1327,938)"/>
<path d="M0 0 C2.59076445 0.36932174 3.71552398 0.65658558 5.4140625 2.70703125 C5.81367187 3.40183594 6.21328125 4.09664062 6.625 4.8125 C7.02976562 5.49957031 7.43453125 6.18664062 7.8515625 6.89453125 C8.94991964 8.90818601 9.9909815 10.94030627 11 13 C6.88981036 9.64026633 3.05359558 6.39717763 0 2 C0 1.34 0 0.68 0 0 Z " fill="#ADB4EC" transform="translate(1167,821)"/>
<path d="M0 0 C0.66 0.33 1.32 0.66 2 1 C-1.3 4.3 -4.6 7.6 -8 11 C-8 6.67750434 -5.85084926 5.11604454 -3 2 C-2.01 1.34 -1.02 0.68 0 0 Z " fill="#DBDEF6" transform="translate(1521,1125)"/>
</svg>
