<svg id="visual" viewBox="0 0 1920 1080" width="1920" height="1080" xmlns="http://www.w3.org/2000/svg" xmlns:xlink="http://www.w3.org/1999/xlink" version="1.1"><path d="M0 127L45.7 119.3C91.3 111.7 182.7 96.3 274.2 88.8C365.7 81.3 457.3 81.7 548.8 91.8C640.3 102 731.7 122 823 119.7C914.3 117.3 1005.7 92.7 1097 82.7C1188.3 72.7 1279.7 77.3 1371.2 88.8C1462.7 100.3 1554.3 118.7 1645.8 116.7C1737.3 114.7 1828.7 92.3 1874.3 81.2L1920 70L1920 0L1874.3 0C1828.7 0 1737.3 0 1645.8 0C1554.3 0 1462.7 0 1371.2 0C1279.7 0 1188.3 0 1097 0C1005.7 0 914.3 0 823 0C731.7 0 640.3 0 548.8 0C457.3 0 365.7 0 274.2 0C182.7 0 91.3 0 45.7 0L0 0Z" fill="#5d71e0" stroke-linecap="round" stroke-linejoin="miter"></path></svg>