<svg id="visual" viewBox="0 0 1920 200" width="1920" height="1080" xmlns="http://www.w3.org/2000/svg" xmlns:xlink="http://www.w3.org/1999/xlink" version="1.1"><path d="M0 1001L45.7 1004.3C91.3 1007.7 182.7 1014.3 274.2 1006.5C365.7 998.7 457.3 976.3 548.8 974.5C640.3 972.7 731.7 991.3 823 991.7C914.3 992 1005.7 974 1097 969.8C1188.3 965.7 1279.7 975.3 1371.2 985.2C1462.7 995 1554.3 1005 1645.8 1005.2C1737.3 1005.3 1828.7 995.7 1874.3 990.8L1920 986L1920 1081L1874.3 1081C1828.7 1081 1737.3 1081 1645.8 1081C1554.3 1081 1462.7 1081 1371.2 1081C1279.7 1081 1188.3 1081 1097 1081C1005.7 1081 914.3 1081 823 1081C731.7 1081 640.3 1081 548.8 1081C457.3 1081 365.7 1081 274.2 1081C182.7 1081 91.3 1081 45.7 1081L0 1081Z" fill="#5d71e0" stroke-linecap="round" stroke-linejoin="miter"></path></svg>